<?xml version="1.0" encoding="UTF-8"?>
<svg xmlns="http://www.w3.org/2000/svg" xmlns:xlink="http://www.w3.org/1999/xlink" width="197px" height="80px" viewBox="0 0 197 80" version="1.1">
  <title>kundenlogos-phantasialand</title>
  <g id="Page-1" stroke="none" stroke-width="1" fill="none" fill-rule="evenodd">
    <g id="kundenlogos-phantasialand" fill="#901216">
      <g id="g2546" transform="translate(34.598, 33.761) scale(-1, 1) rotate(-180) translate(-34.598, -33.761)translate(16.1427, 16.8178)" fill-rule="nonzero">
        <path d="M2.45165583,33.8862638 L5.34056283,29.378398 C5.34056283,29.378398 5.34056283,28.5993163 8.09211728,28.8199811 C10.8459234,29.0406458 21.0280259,29.0564076 25.5201299,28.2953393 C30.0122339,27.5365228 34.0990353,26.3206149 34.1845992,24.8007301 C34.2679114,23.2808453 33.7004878,22.9160729 22.2957224,19.3786817 C10.6432721,15.766985 7.44138141,16.3524222 2.38410539,11.3919684 C-2.02243475,7.0687405 0.931771005,1.25940295 1.43839928,0.0772703151 C1.73787288,-0.620750862 0.458917949,3.5561178 3.93776543,6.73098831 C7.41661291,9.90585883 11.9087169,11.3919684 11.9087169,11.3919684 C11.9087169,11.3919684 28.7625509,15.915596 32.1580861,18.4667508 C35.5536214,21.0179056 36.312438,22.7066666 36.7335024,24.6160922 C37.1568184,26.5232662 37.5103324,29.4121732 29.1183165,31.9948516 C20.7240489,34.5797816 9.25848815,33.2625481 9.25848815,33.2625481 C9.25848815,33.2625481 6.25024204,33.2783099 4.7326089,33.3638738 C3.21272408,33.447186 2.45165583,33.8862638 2.45165583,33.8862638" id="path2548"></path>
      </g>
      <g id="g2550" transform="translate(25.1637, 37.6213) scale(-1, 1) rotate(-180) translate(-25.1637, -37.6213)translate(14.3725, 10.2992)" fill-rule="nonzero">
        <path d="M21.5823645,54.644223 C21.5823645,54.644223 14.5458607,39.9812749 13.2736608,31.6590611 C11.6952322,21.3418578 11.7943062,16.5007432 10.5874051,6.97162828 C10.2496529,4.29437931 10.3532302,1.70269423 6.87438276,0.554336807 C3.3932836,-0.596272295 0,0.401222485 0,0.401222485 C0,0.401222485 3.74454587,0.842552003 4.94694364,6.14300959 C5.7305287,9.59258522 6.5816642,26.5567515 8.12181415,31.8977394 C11.5241045,43.6920456 21.5823645,54.644223 21.5823645,54.644223" id="path2552"></path>
      </g>
      <g id="g2554" transform="translate(98.287, 54.8424) scale(-1, 1) rotate(-180) translate(-98.287, -54.8424)translate(0, 53.7166)" fill-rule="nonzero">
        <path d="M0,2.0787758 C0,2.0787758 59.5074312,2.20261827 105.137751,2.20486995 C137.766864,2.20486995 196.574022,2.00897368 196.574022,2.00897368 C196.574022,2.00897368 137.773619,0.243655609 105.137751,0.0657727929 C59.5029279,-0.181912141 0,2.0787758 0,2.0787758" id="path2556"></path>
      </g>
      <g id="g2558" transform="translate(120.635, 27.8063) scale(-1, 1) rotate(-180) translate(-120.635, -27.8063)translate(96.9416, 22.053)" fill-rule="nonzero">
        <path d="M-7.55189697e-16,1.43716324 C-7.55189697e-16,1.43716324 -0.0202610665,2.84671568 2.8010955,4.53997996 C8.6869902,8.07286779 21.1320323,3.83745542 26.6193794,3.5402335 C29.2741116,3.3961259 37.8214935,2.96155142 41.1697435,5.5419781 C43.2998339,7.18345371 42.7684371,9.26400715 42.7684371,9.26400715 L47.3866353,11.5066816 C47.3866353,11.5066816 47.1434537,8.23048547 43.6578512,5.60502517 C40.8207329,3.46592802 35.2545769,-0.956373894 26.7679904,0.185228483 C20.0579804,1.08590097 16.6106564,2.82645055 6.39027536,4.22924795 C1.6977717,4.48143625 -7.55189697e-16,1.43716324 -7.55189697e-16,1.43716324" id="path2560"></path>
      </g>
      <g id="g2562" transform="translate(130.0057, 31.4987) scale(-1, 1) rotate(-180) translate(-130.0057, -31.4987)translate(106.8408, 0)" fill-rule="nonzero">
        <path d="M17.1773158,62.997395 C5.73202021,50.5636113 -3.15086219,21.7263299 12.9148833,8.46167588 C20.6831835,2.04663609 30.4667384,3.35486288 35.0218895,5.27329528 C46.5707625,10.134675 39.5410137,14.5547253 35.2155341,19.2629907 C29.0864578,25.9347221 30.5410439,27.5199057 31.0409171,28.6660114 C32.3266271,31.6112105 37.6180779,34.2839561 46.3298326,31.8161135 C44.8212062,31.0595486 42.3893904,29.0668107 40.8627506,28.3462727 C39.6828696,29.3482709 36.6611134,30.3367589 35.7626926,28.2359403 C32.9008058,21.5416921 54.9290031,17.6620453 41.1982511,6.39463252 C30.0073954,-2.78997517 13.7727738,-2.92057268 4.7030019,11.5419758 C-3.96146743,25.3627951 -0.493878353,44.0112189 13.7840322,60.2886225 L17.1773158,62.997395" id="path2564"></path>
      </g>
      <g id="g2566" transform="translate(53.6373, 24.9903) scale(-1, 1) rotate(-180) translate(-53.6373, -24.9903)translate(37.898, 0.2004)" fill-rule="nonzero">
        <path d="M31.4785034,49.5797687 C31.4785034,49.5797687 24.3181572,46.4724487 15.941903,36.0696814 C10.5378681,29.9901421 7.56564889,21.8840898 7.29544715,17.2906601 C7.19637317,15.6041508 6.72126844,14.1225446 6.50510704,12.7670325 L6.49610031,12.7062371 C6.49610031,12.7062371 10.8666136,15.9531614 16.6174074,13.6654533 C20.2808927,12.2086156 20.0422145,7.63545101 20.0422145,7.63545101 L20.017446,6.14934141 L21.8323011,7.38326271 L21.5620993,3.42931049 L14.9061297,0.0855638863 C14.9061297,0.0855638863 15.0209654,4.2556775 14.8363275,5.95569682 C14.7169884,8.79056347 13.3051843,9.83534356 9.84885365,9.09228876 C9.84885365,9.09228876 6.41503979,8.64645588 6.12457291,5.75980056 L5.55264588,1.91167735 L0,0 L1.45908943,13.6384331 C2.29671484,19.8575767 4.16335857,24.0704722 7.43054802,29.8550413 C15.6717013,44.4459356 31.4785034,49.5797687 31.4785034,49.5797687" id="path2568"></path>
      </g>
      <g id="g2570" transform="translate(171.3809, 73.3814) scale(-1, 1) rotate(-180) translate(-171.3809, -73.3814)translate(158.5045, 67.001)">
        <path d="M19.2094604,6.32545023 C19.2094604,8.03672796 18.7591242,8.84958488 17.8584517,9.84482797 C16.9600309,10.8423228 15.2487532,11.0629875 12.7291219,11.0517291 L11.4906972,11.0157022 C11.0673811,11.0157022 10.6530718,10.9481518 10.2522725,10.8130509 C9.84922159,10.6802017 9.64882197,10.3919865 9.64882197,9.95290867 L9.64882197,2.82633762 C9.64882197,2.38725978 9.84922159,2.10129627 10.2522725,1.96619539 C10.6530718,1.83109452 11.0673811,1.76354408 11.4906972,1.76354408 L12.7291219,1.72751718 C15.122659,1.72751718 16.8001615,2.20712528 17.7638811,3.16634148 C18.7276006,4.12555768 19.2094604,4.638941 19.2094604,6.32545023 M22.6725461,10.8918597 C23.7308363,10.2906609 24.5076663,9.61065313 25.0052879,8.8473332 C25.5051611,8.08176158 25.752846,7.24188449 25.752846,6.32545023 C25.752846,5.50583827 25.5299296,4.70874312 25.0863484,3.9319131 C24.6405155,3.15733476 23.8997124,2.48183039 22.8616874,1.90765168 C21.7606152,1.29519439 20.4546401,0.826844697 18.9392587,0.504854283 C17.4261289,0.180612188 15.3973641,0.0184911401 12.8574677,0.0184911401 C12.0513658,0.0184911401 11.0516194,0.027497865 9.85372496,0.0455113147 C8.65808223,0.0635247645 7.65833577,0.0725314893 6.85223389,0.0725314893 C5.94255468,0.0725314893 4.80995903,0.0680281269 3.45444694,0.0545180396 C2.09893484,0.0432596335 1.31985314,0.0657764457 0.57905002,0.0184911401 C0.32010668,0.00272937159 0.00937467233,-0.154888314 0.0206330784,0.83134806 C0.0318914845,1.11731157 0.0814284713,1.37400323 0.135468821,1.47082553 L0.57905002,1.63519825 C1.8287331,1.72076214 2.38039499,1.87387646 2.76993585,2.09454122 C3.16398006,2.3129543 3.35762464,2.67547498 3.35762464,3.17534821 L3.35762464,9.60389808 C3.35762464,10.1037713 3.16398006,10.466292 2.76993585,10.6847051 C2.38039499,10.9053698 1.8287331,11.0584842 0.57905002,11.144048 L0.135468821,11.3084208 C0.0814284713,11.4052431 -0.0063870962,11.610146 0.000367947457,11.9794218 C0.0206330784,12.3779693 0.0814284713,12.5175736 0.135468821,12.6143959 L0.57905002,12.7607552 C1.31985314,12.7494967 2.09893484,12.7359867 3.45444694,12.7247283 C4.80995903,12.7112182 5.94255468,12.7067148 6.85223389,12.7067148 C7.65833577,12.7067148 8.66258559,12.7157215 9.86948672,12.733735 C11.0786395,12.7517484 12.0738826,12.7607552 12.8574677,12.7607552 C15.01683,12.7607552 16.9217523,12.5986341 18.5744863,12.274392 C20.2249686,11.9501499 21.5917391,11.4908069 22.6725461,10.8918597" id="path2572"></path>
      </g>
      <g id="g2574" transform="translate(25.7492, 73.3722) scale(-1, 1) rotate(-180) translate(-25.7492, -73.3722)translate(15.3294, 67.001)" fill-rule="nonzero">
        <path d="M20.837058,4.73078224 C20.688447,4.04627115 20.5465911,3.20864574 20.4092386,2.217906 C20.2696343,1.22941794 20.1795671,0.488614824 20.1390368,0 C18.8037898,0.0247684934 17.1420491,0.0472853056 15.1515629,0.0652987553 C13.1610767,0.0833122051 11.5398662,0.0923189299 10.2901832,0.0923189299 C8.93692275,0.0923189299 7.18961813,0.0810605238 5.05052097,0.0562920304 C2.91142381,0.031523537 1.31273015,0.0135100873 0.252188296,0 L0.0788088426,0.137352554 L0,0.673252684 L0.0788088426,1.18213264 L0.252188296,1.34650537 C1.48160624,1.43432094 2.29221148,1.58518358 2.68400401,1.80584834 C3.07579654,2.0265131 3.27169281,2.38678209 3.27169281,2.88665532 L3.27169281,9.58540694 C3.27169281,10.0875319 3.07579654,10.4478009 2.68400401,10.6684656 C2.29221148,10.8868787 1.48160624,11.3101948 0.252188296,11.3957586 L0.0788088426,11.5601314 L0,12.0690113 L0.0788088426,12.6049115 L0.252188296,12.742264 C1.26994821,12.742264 2.31247661,12.7287539 3.38202519,12.6972304 C4.45157377,12.6657069 5.46257863,12.6521968 6.41503979,12.6521968 C7.39001776,12.6521968 8.40552599,12.6657069 9.46606784,12.6972304 C10.524358,12.7287539 11.5713898,12.742264 12.6094148,12.742264 L12.785046,12.5959047 L12.8638548,12.0690113 L12.785046,11.5511246 L12.6094148,11.3957586 C11.3822486,11.3237048 10.56714,10.9003888 10.164089,10.6684656 C9.76103808,10.4342908 9.56063845,10.3442235 9.56063845,9.85560869 L9.56063845,2.61195021 C9.56063845,2.17287238 9.76779312,1.8824055 10.1798508,1.74054958 C10.5919084,1.60094535 11.0107212,1.53114323 11.4340372,1.53114323 L13.2443889,1.53114323 C14.7282468,1.53114323 16.0454804,1.39379067 17.2005928,2.19989255 C18.3534536,3.00824611 18.8195516,3.64096853 19.1370387,4.64296667 C19.1370387,4.66773516 19.3847236,5.00773903 19.8530733,4.9874739 C20.0849965,4.97846717 20.3124163,4.9627054 20.5353327,4.91316842 C20.7582491,4.86588311 20.8573231,4.80508772 20.837058,4.73078224" id="path2576"></path>
      </g>
      <g id="g2578" transform="translate(121.6054, 73.5005) scale(-1, 1) rotate(-180) translate(-121.6054, -73.5005)translate(108.1685, 67.001)" fill-rule="nonzero">
        <path d="M26.8738153,12.325703 L26.7950065,11.5376146 L26.6193754,11.3822486 C25.4327394,11.3079431 24.8720707,11.1593321 24.396966,10.9319123 C23.9196096,10.7067442 23.6719246,10.0717701 23.6494078,9.57189686 L23.3003972,0.725041352 L22.8230408,0.0652987553 C22.6856883,0.0225168122 22.4582685,0 22.1407814,0 C21.9088582,0 21.7062069,0.00900672487 21.5373308,0.0270201746 L21.1567967,0.146359279 L5.98947204,8.6081773 L5.79807914,3.14334698 C5.75529719,2.66824224 5.97821363,2.31022493 6.46457678,2.07154672 C6.9531916,1.83286851 7.53862872,1.67750251 8.76804666,1.60319703 L8.94142612,1.46584447 L9.02248664,0.929944343 L8.94142612,0.403050938 L8.76804666,0.256691659 C7.96194479,0.256691659 7.22114167,0.272453427 6.54338562,0.303976964 C5.86562957,0.33324882 5.15634999,0.349010589 4.41554687,0.349010589 C3.65447862,0.349010589 2.9497024,0.33324882 2.30346989,0.303976964 C1.65723738,0.272453427 0.974977967,0.256691659 0.254439978,0.256691659 L0.0788088426,0.403050938 L0,0.929944343 L0.0968222924,1.45683775 L0.285963515,1.60319703 C1.49511633,1.67750251 2.06028831,1.83061683 2.52638633,2.06254 C2.99248434,2.29446316 3.2244075,2.65473216 3.2244075,3.14334698 L3.73328746,9.52461155 C3.75355259,10.1843541 3.52162942,10.4140256 3.0330146,10.7495261 C2.54665146,11.0850266 1.89591559,11.2966847 0.540403492,11.3822486 L0.382785807,11.5466213 L0.317487052,12.325703 L0.398547576,12.8616031 L0.571927029,12.9989557 C1.08080698,12.9989557 1.68425755,12.9831939 2.38227873,12.953922 C3.08255159,12.9223985 3.65447862,12.9066367 4.09805982,12.9066367 C4.66998685,12.9066367 5.21039034,12.9223985 5.71927029,12.953922 C6.22589857,12.9831939 6.88338948,12.9989557 7.68723968,12.9989557 L20.9338803,5.52337403 L20.9338803,9.8420986 C20.9338803,10.3419718 20.6794403,10.7044925 20.1705603,10.9229056 C19.6616804,11.1435703 19.3351866,11.2966847 18.1057687,11.3822486 L17.9323892,11.5286078 L17.8535804,12.325703 L17.9323892,12.8525964 L18.1057687,12.9989557 C18.9321357,12.9989557 19.6369119,12.9809422 20.2200973,12.9449153 C20.8010311,12.9066367 21.4630254,12.8886233 22.2038285,12.8886233 C22.9671484,12.8886233 23.7192099,12.9066367 24.4600131,12.9449153 C25.2008162,12.9809422 25.9213542,12.9989557 26.6193754,12.9989557 L26.7950065,12.8616031 L26.8738153,12.325703" id="path2580"></path>
      </g>
      <g id="g2582" transform="translate(72.1471, 73.2458) scale(-1, 1) rotate(-180) translate(-72.1471, -73.2458)translate(59.6986, 66.7083)">
        <path d="M13.0419878,4.82033784 L10.9141491,8.58289715 L8.11981269,4.82033784 L13.0419878,4.82033784 Z M24.8970894,0.929432694 C24.8970894,0.314723721 24.7642403,0.0400186129 24.6989415,0.0400186129 C23.6834333,0.0400186129 22.6566666,0.0557803814 21.6186416,0.0850522373 C20.5806165,0.116575774 19.6281554,0.132337543 18.7590064,0.132337543 C17.7862802,0.132337543 16.7437518,0.116575774 15.6314212,0.0850522373 C14.5190907,0.0557803814 13.478814,0.0242568444 12.4407889,0.0242568444 C12.3777419,0.0242568444 12.0625065,0.0242568444 12.0917784,0.891154113 C12.1503221,1.51036645 12.0715132,1.65672573 12.6141684,1.66122909 C14.1588217,1.67699086 14.4740571,1.66122909 14.4740571,1.90441066 C14.4740571,2.00348463 14.5438592,1.82560182 14.2241205,2.43130407 C13.8143145,3.14058365 13.6454384,3.39952699 13.6454384,3.39952699 L7.1718549,3.38376522 L6.21714206,2.0552733 C6.11806809,1.90891402 6.13157818,1.72877953 6.65396822,1.66122909 C7.07728429,1.60944042 6.8115859,1.67924254 7.91265802,1.65672573 C8.20762826,1.65222236 8.322464,1.65447405 8.322464,0.864133939 C8.26392029,-0.22342809 7.93517483,0.0242568444 7.87212776,0.0242568444 C6.96019686,0.0242568444 6.46707868,0.0557803814 5.95819872,0.0850522373 C5.44931877,0.116575774 4.77156272,0.132337543 3.92493058,0.132337543 C3.2269094,0.132337543 2.61220043,0.116575774 2.08305535,0.0850522373 C1.55391026,0.0557803814 0.927942881,0.0400186129 0.209656572,0.0400186129 C0.146609498,0.0400186129 -0.0582934926,0.109820731 0.0160119876,0.897909157 C0.0182636688,1.40453743 0.101575874,1.67924254 0.367274258,1.65672573 C1.42556443,1.56891016 2.14610242,1.50586309 2.76756644,1.8638804 C3.27194303,2.15434728 3.57366831,2.17686409 4.05327641,2.678989 L11.9296573,12.9286419 C11.9521741,12.9669205 12.0692615,12.998444 12.2809196,13.0299676 C12.4925776,13.0592394 12.6929772,13.0750012 12.8843701,13.0750012 C13.0735114,13.0750012 13.2761627,13.0592394 13.4878207,13.0299676 C13.6994787,12.998444 13.8143145,12.9669205 13.8368313,12.9286419 L20.8890969,2.678989 C21.269631,2.06878339 21.3799634,2.00348463 21.9091085,1.72877953 C22.4382536,1.45407442 23.5798559,1.66122909 24.6403978,1.66122909 C24.8250356,1.66122909 24.8948378,1.36175549 24.8970894,0.929432694" id="path2584"></path>
      </g>
      <g id="g2586" transform="translate(72.6023, 42.7099) scale(-1, 1) rotate(-180) translate(-72.6023, -42.7099)translate(60.9017, 35.5338)" fill-rule="nonzero">
        <path d="M15.9459178,2.76056117 C11.9649455,-2.13909716 -0.495858405,0.335500501 0.0152732314,5.62019632 C0.148122423,6.98696682 2.7758344,14.3004274 17.110037,12.5823946 C17.1820908,13.0732612 17.2428862,14.1608232 17.2856682,14.3522161 L22.1132727,13.3277011 C22.1132727,13.3277011 21.4152515,6.78206383 21.3747213,5.48284377 C21.955655,6.05702248 23.4012344,6.94193319 23.4012344,6.94193319 L22.8698376,2.25168122 L18.7897912,0 C18.7897912,0 16.1418141,0.873652312 15.9526729,2.24942954 L15.9459178,2.76056117 Z M10.3099598,8.93917443 C9.13683384,8.58566048 6.55865885,7.92366621 6.04752721,6.05026743 C5.61295274,4.46058049 9.78531804,3.49010589 13.2056218,4.65872844 C14.0860292,4.96045372 15.3987593,5.84536444 16.5133415,6.74378525 C16.594402,7.46432324 16.6822176,8.2118814 16.7722849,8.92791603 C15.3109437,9.10579884 11.996469,9.45030607 10.3099598,8.93917443" id="path2588"></path>
      </g>
      <g id="g2590" transform="translate(96.1164, 42.76) scale(-1, 1) rotate(-180) translate(-96.1164, -42.76)translate(85.1969, 35.5305)" fill-rule="nonzero">
        <path d="M6.50510704,12.5058375 C6.50510704,12.5058375 10.8733686,16.0770039 16.6241624,13.561876 C20.2898995,11.9586789 20.0512212,6.92842311 20.0512212,6.92842311 L20.0264528,6.18311662 L21.8390561,7.5408804 L21.5688544,3.49010589 L14.9151364,0.11033238 C14.9151364,0.11033238 15.0299721,3.21089742 14.8430826,5.07979283 C14.7259952,8.19837131 13.3119394,9.94117258 9.85786037,9.12381229 C9.85786037,9.12381229 6.15384477,8.03850195 5.86112621,4.86363143 L5.55940093,2.10307026 L0,0 C0.0990739736,0.441329519 1.32398856,11.9474205 1.32398856,11.9474205 L6.69199658,14.3071825 C6.69199658,14.3071825 6.57716084,13.0980296 6.50510704,12.5058375" id="path2592"></path>
      </g>
      <g id="g2594" transform="translate(157.5713, 34.0083) scale(-1, 1) rotate(-180) translate(-157.5713, -34.0083)translate(154.8342, 31.3186)" fill-rule="nonzero">
        <path d="M5.47425911,3.46533739 L4.70418413,0.972726286 L1.9143511,0 C1.9143511,0 0.275127177,0.761068252 0.0589657802,2.0737984 C-0.123420398,3.17487052 0.153536391,4.35700316 0.396717963,5.37926643 L4.49027442,4.67449021 L5.47425911,3.46533739" id="path2596"></path>
      </g>
      <g id="g2598" transform="translate(156.6203, 44.4245) scale(-1, 1) rotate(-180) translate(-156.6203, -44.4245)translate(153.1077, 38.2335)" fill-rule="nonzero">
        <path d="M5.16521861,5.37701475 C5.74390068,5.89264975 7.0251073,6.96895337 7.0251073,6.96895337 L6.66033494,2.32148334 L2.58254025,0 C2.58254025,0 0.234036744,1.57167349 0.0178753472,2.88440364 C-0.164510831,3.98547576 1.10318569,11.3597317 1.34861895,12.381995 L5.90151837,11.4610574 C5.90151837,11.4610574 5.20574887,6.5456373 5.16521861,5.37701475" id="path2600"></path>
      </g>
      <g id="g2602" transform="translate(126.1158, 43.0634) scale(-1, 1) rotate(-180) translate(-126.1158, -43.0634)translate(114.4152, 35.8873)" fill-rule="nonzero">
        <path d="M15.9459178,2.76056117 C11.9649455,-2.13909716 -0.495858405,0.335500501 0.0152732314,5.62019632 C0.145870742,6.98696682 2.7758344,14.3004274 17.110037,12.5823946 C17.1820908,13.0732612 17.2428862,14.1608232 17.2856682,14.3522161 L22.1132727,13.3277011 C22.1132727,13.3277011 21.4152515,6.78206383 21.3747213,5.48284377 C21.9534033,6.05702248 23.4012344,6.94193319 23.4012344,6.94193319 L22.8698376,2.25168122 L18.2493877,0 C18.2493877,0 16.1395624,0.873652312 15.9526729,2.24942954 L15.9459178,2.76056117 Z M10.5779098,8.93917443 C9.40703559,8.58566048 6.55640717,7.92366621 6.04752721,6.05026743 C5.61295274,4.46058049 9.78531804,3.49010589 13.2056218,4.65872844 C14.0860292,4.96045372 15.3987593,5.84761612 16.5133415,6.74378525 C16.594402,7.46432324 16.6822176,8.2118814 16.7722849,8.92791603 C15.3109437,9.10579884 12.2666707,9.45030607 10.5779098,8.93917443" id="path2604"></path>
      </g>
      <g id="g2606" transform="translate(172.9237, 42.8698) scale(-1, 1) rotate(-180) translate(-172.9237, -42.8698)translate(161.2231, 35.6937)" fill-rule="nonzero">
        <path d="M15.9459178,2.76056117 C11.9649455,-2.13909716 -0.495858405,0.335500501 0.0152732314,5.62019632 C0.145870742,6.98696682 2.7758344,14.3004274 17.110037,12.5823946 C17.1820908,13.0732612 17.2428862,14.1608232 17.2856682,14.3522161 L22.1132727,13.3277011 C22.1132727,13.3277011 21.4152515,6.78206383 21.3747213,5.48284377 C21.9534033,6.05702248 23.4012344,6.94193319 23.4012344,6.94193319 L22.8698376,2.25168122 L18.7897912,0 C18.7897912,0 16.1395624,0.873652312 15.9526729,2.24942954 L15.9459178,2.76056117 Z M10.5779098,8.93917443 C9.40703559,8.58566048 6.55640717,7.92366621 6.04752721,6.05026743 C5.61295274,4.46058049 9.78531804,3.49010589 13.2056218,4.65872844 C14.0860292,4.96045372 15.3987593,5.84536444 16.5133415,6.74378525 C16.594402,7.46432324 16.6822176,8.2118814 16.7722849,8.92791603 C15.3109437,9.10579884 12.2666707,9.45030607 10.5779098,8.93917443" id="path2608"></path>
      </g>
      <g id="g2610" transform="translate(25.7492, 73.3722) scale(-1, 1) rotate(-180) translate(-25.7492, -73.3722)translate(15.3294, 67.001)" fill-rule="nonzero">
        <path d="M20.837058,4.73078224 C20.688447,4.04627115 20.5465911,3.20864574 20.4092386,2.217906 C20.2696343,1.22941794 20.1795671,0.488614824 20.1390368,0 C18.8037898,0.0247684934 17.1420491,0.0472853056 15.1515629,0.0652987553 C13.1610767,0.0833122051 11.5398662,0.0923189299 10.2901832,0.0923189299 C8.93692275,0.0923189299 7.18961813,0.0810605238 5.05052097,0.0562920304 C2.91142381,0.031523537 1.31273015,0.0135100873 0.252188296,0 L0.0788088426,0.137352554 L0,0.673252684 L0.0788088426,1.18213264 L0.252188296,1.34650537 C1.48160624,1.43432094 2.29221148,1.58518358 2.68400401,1.80584834 C3.07579654,2.0265131 3.27169281,2.38678209 3.27169281,2.88665532 L3.27169281,9.58540694 C3.27169281,10.0875319 3.07579654,10.4478009 2.68400401,10.6684656 C2.29221148,10.8868787 1.48160624,11.3101948 0.252188296,11.3957586 L0.0788088426,11.5601314 L0,12.0690113 L0.0788088426,12.6049115 L0.252188296,12.742264 C1.26994821,12.742264 2.31247661,12.7287539 3.38202519,12.6972304 C4.45157377,12.6657069 5.46257863,12.6521968 6.41503979,12.6521968 C7.39001776,12.6521968 8.40552599,12.6657069 9.46606784,12.6972304 C10.524358,12.7287539 11.5713898,12.742264 12.6094148,12.742264 L12.785046,12.5959047 L12.8638548,12.0690113 L12.785046,11.5511246 L12.6094148,11.3957586 C11.3822486,11.3237048 10.56714,10.9003888 10.164089,10.6684656 C9.76103808,10.4342908 9.56063845,10.1550823 9.56063845,9.66646747 L9.56063845,2.61195021 C9.56063845,2.17287238 9.76779312,1.8824055 10.1798508,1.74054958 C10.5919084,1.60094535 11.0107212,1.53114323 11.4340372,1.53114323 L13.2443889,1.53114323 C14.7282468,1.53114323 16.0454804,1.39379067 17.2005928,2.19989255 C18.3534536,3.00824611 18.8195516,3.64096853 19.1370387,4.64296667 C19.1370387,4.66773516 19.3847236,5.00773903 19.8530733,4.9874739 C20.0849965,4.97846717 20.3124163,4.9627054 20.5353327,4.91316842 C20.7582491,4.86588311 20.8573231,4.80508772 20.837058,4.73078224" id="path2612"></path>
      </g>
      <g id="g2614" transform="translate(121.6054, 73.5005) scale(-1, 1) rotate(-180) translate(-121.6054, -73.5005)translate(108.1684, 67.001)" fill-rule="nonzero">
        <path d="M26.8739364,12.325703 L26.7951275,11.5376146 L26.6194964,11.3822486 C25.4328604,11.3079431 24.8721918,11.1593321 24.397087,10.9319123 C23.9197306,10.7067442 23.6720457,10.0717701 23.6495289,9.57189686 L23.3005183,0.725041352 L22.8231619,0.0652987553 C22.6858093,0.0225168122 22.4583895,0 22.1409025,0 C21.9089793,0 21.706328,0.00900672487 21.5374519,0.0270201746 L21.1569178,0.146359279 L5.98959308,8.6081773 L5.79820018,3.14334698 C5.75541823,2.66824224 5.97833467,2.31022493 6.46469782,2.07154672 C6.95331264,1.83286851 7.53874976,1.94094921 8.7681677,1.86889541 L8.94154716,1.72929118 C8.9955875,1.63922393 9.020356,1.38028059 9.02260768,1.06054185 C9.00909759,0.792591789 8.9955875,0.502124912 8.94154716,0.403050938 L8.7681677,0.256691659 C7.96206583,0.256691659 7.2212627,0.272453427 6.54350666,0.303976964 C5.86575061,0.33324882 5.15647103,0.349010589 4.41566791,0.349010589 C3.65459966,0.349010589 2.94982343,0.33324882 2.30359093,0.303976964 C1.65735842,0.272453427 0.975099007,0.256691659 0.254561017,0.256691659 L0.0789298819,0.403050938 C0.0271412139,0.502124912 -0.00213064197,0.801598514 0,1.04478009 C0.00912776411,1.36001546 0.0316445763,1.64597897 0.0969433316,1.73154286 L0.286084554,1.87790214 C1.49523737,1.95220762 2.08742953,1.84187524 2.55352754,2.0737984 C3.01962555,2.30572157 3.22452854,2.65473216 3.22452854,3.14334698 L3.7334085,9.52461155 C3.75367363,10.1843541 3.52175046,10.4140256 3.03313564,10.7495261 C2.5467725,11.0850266 1.89603662,11.2966847 0.540524532,11.3822486 L0.382906846,11.5466213 C0.340124903,11.6434436 0.308601366,11.9834474 0.317608091,12.325703 C0.31535641,12.5508711 0.344628266,12.7692842 0.398668615,12.8616031 L0.572048069,12.9989557 C1.08092802,12.9989557 1.68437859,12.9831939 2.38239977,12.953922 C3.08267263,12.9223985 3.65459966,12.9066367 4.09818086,12.9066367 C4.67010788,12.9066367 5.21051138,12.9223985 5.71939133,12.953922 C6.22601961,12.9831939 6.88351052,12.9989557 7.68736072,12.9989557 L20.9340013,5.52337403 L20.9340013,9.8420986 C20.9340013,10.3419718 20.6795613,10.7044925 20.1706814,10.9229056 C19.6618014,11.1435703 19.3353077,11.2966847 18.1058897,11.3822486 L17.9325103,11.5286078 L17.8537014,12.325703 L17.9325103,12.8525964 L18.1058897,12.9989557 C18.9322567,12.9989557 19.6370329,12.9809422 20.2202184,12.9449153 C20.8011521,12.9066367 21.4631464,12.8886233 22.2039495,12.8886233 C22.9672695,12.8886233 23.719331,12.9066367 24.4601341,12.9449153 C25.2009372,12.9809422 25.9214752,12.9989557 26.6194964,12.9989557 L26.7951275,12.8616031 L26.8739364,12.325703" id="path2616"></path>
      </g>
    </g>
  </g>
</svg>
