<?xml version="1.0" encoding="UTF-8"?>
<svg xmlns="http://www.w3.org/2000/svg" xmlns:xlink="http://www.w3.org/1999/xlink" width="250px" height="79px" viewBox="0 0 250 79" version="1.1">
  <title>Coca cola</title>
  <g id="Page-1" stroke="none" stroke-width="1" fill="none" fill-rule="evenodd">
    <g id="Coca-cola" fill="#E61D2B" fill-rule="nonzero">
      <path d="M175.133553,6.0214988 C175.133553,6.0214988 170.447287,7.88706337 164.996912,13.8942626 C159.546537,19.9014618 156.372232,26.6565126 158.721462,28.4529822 C159.623761,29.1358032 161.704739,29.2658643 165.480577,25.8517592 C168.965208,22.8263003 171.700453,19.0336872 173.471208,14.7721753 C175.909855,8.82594227 175.133553,6.0946582 175.133553,6.02962762 M204.962264,16.8287672 C198.906291,13.7235573 194.480148,9.91926879 189.875171,7.56597492 C185.481542,5.31022691 182.640519,4.36728359 179.088224,4.84281966 C178.592705,4.93115226 178.103828,5.05337146 177.625036,5.20861664 C177.625036,5.20861664 179.454021,11.4556161 172.174661,21.9499248 C164.80182,32.5905524 158.1118,32.517393 156.209656,29.5950816 C154.218094,26.5101938 156.790866,20.2225502 161.086949,14.6258565 C165.586251,8.77310493 173.487466,3.9201984 173.487466,3.9201984 C173.487466,3.9201984 170.967531,2.3797867 164.781498,5.88737324 C158.745848,9.29334952 148.357214,17.4221712 138.716431,31.1314289 C129.075649,44.8406866 127.165376,52.3842331 125.783476,58.3223374 C124.401577,64.2604416 125.657479,70.6212445 132.241825,70.6212445 C138.826171,70.6212445 146.491649,60.5780854 148.653916,57.0867565 C152.673618,50.5836991 155.295163,40.609635 149.824466,41.9793414 C147.129762,42.6540336 144.947173,45.6373112 143.569338,48.5108496 C142.699463,50.3564868 142.034354,52.2918475 141.585906,54.282313 C139.674263,55.0701849 137.878892,56.1148643 136.249334,57.3875229 C134.436557,58.73031 132.742265,60.2260734 131.185078,61.8583748 C131.185078,61.8583748 131.209465,57.1111429 134.993431,49.4294065 C138.777398,41.74767 145.723476,38.2400834 149.657825,37.9108662 C153.201992,37.6263574 157.815098,40.6340214 153.905135,51.729863 C149.995172,62.8257046 138.460374,76.3154841 126.344365,76.4821249 C115.163171,76.6365726 107.847231,62.3664261 123.40986,37.463781 C140.634833,9.95178407 160.83902,1.51000278 167.398979,0.571123878 C173.958938,-0.367755023 176.092753,2.52610549 176.092753,2.52610549 C180.041606,0.90605262 184.306511,0.202878251 188.56643,0.469513608 C196.577384,1.01008025 202.771546,6.67993336 210.949141,10.663056 C208.823454,12.6952614 206.795313,14.8290771 204.966328,16.8287672 M240.952621,7.56597492 C235.400636,11.1263988 227.7189,14.353541 220.33793,13.6625912 C218.468301,15.5931863 216.468611,17.8286123 214.464856,20.2672588 C227.263686,22.7993867 238.477395,14.8697212 244.439886,8.11873479 C246.613559,5.69150776 248.480908,3.00651089 250,0.124038687 C247.285478,2.9514314 244.247404,5.44928177 240.948557,7.56597492 M223.906482,43.6254278 C224.003429,43.4566627 224.082438,43.2782105 224.142218,43.09299 C224.063876,42.4890222 223.574535,42.0216931 222.967604,41.9712126 C221.74828,41.9143108 220.085936,42.1459823 215.724823,46.9745023 C212.106927,50.9619347 208.993241,55.3792467 206.453902,60.1269358 C203.958354,64.6872047 202.946316,68.0850522 204.381053,68.9629649 C204.84719,69.2044145 205.387685,69.2596263 205.893014,69.1174125 C206.864408,68.8857411 207.965863,67.9753131 209.6404,66.0365891 C210.424832,65.1261611 211.294616,63.8377429 212.335105,62.4111347 C215.220837,58.4849138 222.471745,46.1250405 223.906482,43.6254278 M178.604559,48.8766466 C179.332089,46.9745023 180.258775,43.2393088 178.332244,41.7720565 C176.263459,40.2153871 170.987853,43.8692924 170.959403,47.6166792 C170.922823,51.4534831 174.674274,53.1889865 175.572509,53.4328511 C176.084625,53.5710411 176.263459,53.550719 176.511388,53.1402135 C177.307046,51.7692347 178.006455,50.3446131 178.604559,48.8766466 M174.613308,55.85524 C173.305961,55.2515607 172.086393,54.4736076 170.987853,53.5425902 C169.88627,52.6185295 168.965683,51.4981154 168.272827,50.2382242 C168.199668,50.1162919 168.126508,50.2097733 168.04522,50.3195124 C167.963932,50.4292515 167.638779,50.7259535 164.826207,54.8472661 C162.013634,58.9685787 157.693166,67.5079058 161.603129,68.9629649 C164.106806,69.893715 168.272827,65.5082157 170.544833,62.602162 C172.0928,60.5737555 173.495792,58.4387082 174.743369,56.2129081 C174.861237,55.9649791 174.743369,55.9080773 174.617372,55.85524 M218.968223,65.7195651 C217.907412,67.4184888 216.696218,70.6781463 220.187547,68.6500053 C224.459242,66.1829079 230.543665,56.9526309 230.543665,56.9526309 L233.3034,56.9526309 C230.792296,60.813734 227.996334,64.4819054 224.938843,67.9265401 C220.610245,72.7225449 215.330576,77.0795933 211.61164,76.6487658 C207.266785,76.1407144 208.628362,70.438346 208.628362,70.438346 C208.628362,70.438346 202.413878,77.0552069 198.113731,76.5796708 C192.305688,75.9374939 194.077771,68.7597444 194.077771,68.7597444 C194.077771,68.7597444 187.509683,76.819471 183.034767,76.571542 C176.019594,76.1651009 177.783548,67.6298382 179.734466,61.6185745 C180.779019,58.4036256 181.746349,55.8796264 181.746349,55.8796264 C181.746349,55.8796264 181.051335,56.0625249 179.555632,56.2860675 C178.775265,56.3958066 177.352721,56.4770948 177.352721,56.4770948 C177.352721,56.4770948 174.430409,61.6307678 172.093373,64.7278488 C169.756337,67.8249299 159.822917,78.5021371 153.978294,76.364257 C148.572628,74.3889534 150.360969,66.1138129 153.506822,59.5375962 C158.099607,49.949651 171.016304,36.1753627 178.466369,37.9962188 C186.18875,39.8699122 178.641139,53.9612245 178.641139,53.9612245 C178.641139,53.9612245 178.641139,54.0140619 178.722427,54.0506416 C178.876875,54.1075433 179.279252,54.1522518 180.210002,53.9693534 C181.174525,53.7726246 182.119786,53.4910863 183.034767,53.1280203 C183.034767,53.1280203 190.797792,36.870377 199.373699,26.2338139 C207.949606,15.5972507 225.056711,-2.72104889 231.771117,1.70915891 C233.396882,2.79842101 232.665288,6.54987221 230.454248,11.1020123 C229.458383,11.4254964 228.446325,11.6968256 227.422198,11.9148945 C228.901643,9.22831895 229.881166,6.96444211 230.173804,5.3833863 C231.185842,-0.111697141 218.354497,11.4800025 209.185186,23.9333573 C203.662075,31.4409487 198.755236,39.3829592 194.512663,47.6817098 C196.169083,46.6714935 197.750206,45.5427022 199.243638,44.3041844 C203.333616,40.9129028 207.220491,37.2838857 210.88411,33.4359498 C214.411948,29.8242739 217.720854,26.0050524 220.793144,21.9986978 C221.769283,21.9514885 222.742121,21.851084 223.707326,21.6979314 C220.357534,26.244475 216.704818,30.5598398 212.774061,34.614629 C209.116091,38.3132428 205.157355,42.292301 201.718864,45.1820971 C198.647557,47.7938884 195.408023,50.2011363 192.02118,52.3882975 C192.02118,52.3882975 184.002097,68.5605882 188.36321,69.597013 C190.927853,70.2148034 195.992109,62.4151991 195.992109,62.4151991 C195.992109,62.4151991 202.600841,52.3313958 206.583964,47.7833201 C212.018081,41.6054156 216.696218,38.0287341 221.37029,37.9637035 C224.093445,37.9149306 225.698888,40.8087911 225.698888,40.8087911 L226.979177,38.8253586 L234.864134,38.8253586 C234.864134,38.8253586 220.138774,63.8133564 218.960094,65.6951786 M240.948557,7.56597492 C235.396572,11.1263988 227.714835,14.353541 220.333865,13.6625912 C218.464236,15.5931863 216.464546,17.8286123 214.460792,20.2672588 C227.259621,22.7993867 238.473331,14.8697212 244.435822,8.11873479 C246.61092,5.69173369 248.47964,3.00672716 250,0.124038687 C247.285478,2.9514314 244.247404,5.44928177 240.948557,7.56597492 M130.213684,19.824238 L122.714846,19.824238 L118.475666,26.6727702 L125.974504,26.6727702 L130.213684,19.824238 Z M94.706991,43.5400752 C97.8975535,39.1667691 106.701067,23.8398759 106.701067,23.8398759 C106.624535,23.2365513 106.136551,22.7688998 105.530517,22.7180985 C104.311194,22.6611967 102.278988,23.0717022 98.2430284,28.1237649 C94.2070685,33.1758276 91.0734077,37.1955299 88.7892089,41.3778086 C86.2855318,45.942142 85.1922053,49.1611553 86.6310067,50.0350037 C87.0979055,50.2689252 87.6342774,50.3238636 88.1389031,50.1894513 C89.0737176,49.9537155 90.2971053,49.0148366 91.9757069,47.0842414 C92.7642026,46.1819422 93.658373,44.9666834 94.706991,43.5400752 M54.4693238,22.8115799 C52.3964743,21.2467818 47.1249334,24.9088159 47.0964826,28.6480739 C47.0639673,32.4889421 51.83965,33.6635569 52.4574404,33.6920077 C52.6391585,33.7071187 52.8213445,33.6689868 52.9817494,33.5822686 C53.0919523,33.5179778 53.1798764,33.4215449 53.2337429,33.3058887 C53.7952305,32.2025175 54.2998776,31.0711313 54.7457037,29.9161701 C55.4732333,28.0140258 56.3958545,24.2788322 54.4693238,22.8115799 M51.3437919,36.0331084 C49.9144878,35.5865916 48.5484953,34.958235 47.279381,34.1634794 C46.0495456,33.3617092 45.0494603,32.2537716 44.3773917,30.9485304 C44.3042323,30.8265981 44.2229441,30.9200795 44.1497847,31.0298186 C44.0766253,31.1395577 43.6539266,31.6679311 40.8332255,35.8055014 C38.0125244,39.9430716 33.83431,48.4051749 37.7483377,49.860234 C40.2438859,50.8072417 44.4586799,46.3851628 46.7469432,43.4913022 C48.4593155,41.2171561 50.0415488,38.8478771 51.4860463,36.3948409 C51.5795277,36.1469119 51.4860463,36.0900101 51.3478563,36.0453016 M112.590399,38.581494 L115.33794,38.581494 C115.33794,38.581494 101.571781,58.497107 93.796563,57.5704214 C89.4557722,57.06237 90.7441905,51.7054765 90.7441905,51.7054765 C90.7441905,51.7054765 84.6475742,58.8425819 79.0468161,57.3956517 C73.9663026,56.0909758 77.2462821,47.6410657 77.2462821,47.6410657 C76.6691358,47.8727371 65.6749045,60.2651257 57.9484595,57.2940414 C49.8643463,54.1725739 54.0628827,43.7961331 55.59923,40.6746655 C56.9039059,38.0449917 58.3467717,35.4844129 58.3467717,35.4844129 C58.3467717,35.4844129 57.1071264,35.8339522 56.3145663,36.0127863 C55.5220062,36.1916204 54.3758424,36.4192274 54.3758424,36.4192274 C54.3758424,36.4192274 50.5512318,42.6337116 48.2141955,45.734857 C45.8771593,48.8360025 35.9437392,59.4928877 30.0909876,57.3712652 C24.2382361,55.2496428 25.6892307,47.0598549 28.9773391,40.5567976 C34.3098461,30.0096515 46.962357,17.0482454 54.5831273,19.0154202 C62.2811214,20.9785307 55.9081252,33.4644007 55.9081252,33.4644007 C55.9081252,33.4644007 57.4404081,33.6635569 61.1105711,31.1598798 C66.3943052,27.5547474 73.3688342,17.8570631 80.9205095,18.9950982 C84.4809334,19.5316004 87.7974926,23.1692481 83.2616101,30.0787465 C81.8146799,32.2979148 79.3882266,34.2813473 77.5307909,32.3182369 C76.3724338,31.0989136 77.3844721,28.8756809 78.5997309,27.3555912 C79.5602426,26.097263 81.0839496,25.3994053 82.6641417,25.4940911 C82.6641417,25.4940911 83.9119159,22.6490035 80.737611,22.6896476 C78.1689034,22.7384205 71.665846,28.7252977 67.995683,34.773141 C64.6303509,40.3251262 59.5295153,49.7830102 64.6506729,51.8436665 C69.3450674,53.7376819 78.2786424,43.1336341 82.4162127,37.5775845 C86.5537829,32.0215349 95.983216,19.4299901 103.892559,18.9260032 C106.615715,18.7471691 108.237415,21.2305241 108.237415,21.2305241 L109.151907,19.7835939 L117.061251,19.7835939 C117.061251,19.7835939 102.165185,44.6415305 101.002763,46.5233527 C100.088271,47.9946694 98.8730121,51.3030999 102.222087,49.4497285 C105.571161,47.5963572 112.590399,38.581494 112.590399,38.581494 M108.286188,78.4127201 C102.46252,74.3814218 95.4890371,72.3464199 88.4112186,72.6128058 C84.5258087,72.7187662 80.9237101,74.6707836 78.7135344,77.868089 C75.6977416,72.604677 69.7352509,69.3734704 60.5171671,69.4466298 C45.6211014,69.6173351 30.8469681,76.4861894 19.1414649,76.4780605 C7.92369098,76.4780605 -0.257968015,69.4263077 0.00621868853,56.903858 C0.498012399,34.9275886 19.0683055,15.1379723 32.9279464,6.23284816 C40.9185781,1.11575493 47.6004695,-0.404334721 51.9697111,0.0874589897 C55.1562092,0.441062732 58.9889486,4.12341894 56.5706242,9.5494074 C53.0183291,17.4790729 48.1125853,16.8287672 48.2954838,13.0366719 C48.397094,10.5695745 50.039116,9.01696958 51.2746969,8.1593789 C52.0591282,7.61881226 53.4450923,7.46436465 54.1685574,7.448107 C54.8717005,6.85470302 55.3878807,2.51391226 49.6977055,3.94052046 C44.0075303,5.36712866 37.0980319,10.9760156 30.5380728,18.2228601 C23.9781138,25.4697046 13.7642493,39.1667691 11.2402502,53.550719 C10.0615711,60.2204172 10.8338091,72.3851988 26.6484317,72.2470089 C40.0609874,72.1372698 59.8302817,63.305305 77.9981981,63.4882035 C85.0499509,63.5572985 91.1872112,65.4594428 95.9710228,68.410205 C100.669482,71.3040655 106.302755,75.5310528 108.302445,78.4167845" id="Shape"></path>
    </g>
  </g>
</svg>
